<?xml version="1.0" encoding="UTF-8" standalone="no"?>
<!-- Uploaded to: SVG Repo, www.svgrepo.com, Generator: SVG Repo Mixer Tools -->

<svg
   fill="#000000"
   height="64.791229"
   width="64.808266"
   version="1.1"
   id="Capa_1"
   viewBox="0 0 490.12884 489.99999"
   xml:space="preserve"
   sodipodi:docname="logo.svg"
   inkscape:version="1.4.2 (f4327f4, 2025-05-13)"
   xmlns:inkscape="http://www.inkscape.org/namespaces/inkscape"
   xmlns:sodipodi="http://sodipodi.sourceforge.net/DTD/sodipodi-0.dtd"
   xmlns="http://www.w3.org/2000/svg"
   xmlns:svg="http://www.w3.org/2000/svg"><defs
   id="defs2" /><sodipodi:namedview
   id="namedview2"
   pagecolor="#ffffff"
   bordercolor="#000000"
   borderopacity="0.25"
   inkscape:showpageshadow="2"
   inkscape:pageopacity="0.0"
   inkscape:pagecheckerboard="0"
   inkscape:deskcolor="#d1d1d1"
   inkscape:zoom="1.03125"
   inkscape:cx="400"
   inkscape:cy="400"
   inkscape:window-width="1920"
   inkscape:window-height="1027"
   inkscape:window-x="-8"
   inkscape:window-y="22"
   inkscape:window-maximized="1"
   inkscape:current-layer="g2" />
<g
   id="g2"
   style="fill:#000000;fill-opacity:1"
   transform="translate(3.1652698e-4,-0.064)">
	<path
   d="m 388.089,238.332 c -2.602,-2.857 -64.6,-69.979 -143.024,-69.979 -78.424,0 -140.423,67.121 -143.024,69.979 -3.473,3.816 -3.473,9.648 0,13.463 2.602,2.857 64.6,69.98 143.024,69.98 78.424,0 140.423,-67.123 143.024,-69.98 3.472,-3.815 3.472,-9.647 0,-13.463 z m -143.025,55.375 c -26.821,0 -48.643,-21.822 -48.643,-48.643 0,-26.822 21.821,-48.643 48.643,-48.643 26.822,0 48.643,21.82 48.643,48.643 0,26.82 -21.821,48.643 -48.643,48.643 z m -50.552,-95.02 c -11.225,12.225 -18.09,28.512 -18.09,46.377 0,17.865 6.865,34.152 18.09,46.377 -33.014,-13.092 -59.146,-35.281 -70.908,-46.377 11.766,-11.1 37.898,-33.287 70.908,-46.377 z m 101.105,92.754 c 11.225,-12.225 18.09,-28.514 18.09,-46.377 0,-17.865 -6.865,-34.152 -18.09,-46.377 33.014,13.09 59.147,35.279 70.908,46.377 -11.766,11.1 -37.898,33.287 -70.908,46.377 z"
   id="path1"
   style="fill:#008800;fill-opacity:1"
   sodipodi:nodetypes="csccsccssssscsccccsccc" />
	<path
   d="M 466.028,139.384 C 437.8,80.363 388.277,35.865 326.582,14.091 300.21,4.783 272.783,0.064 245.064,0.064 c -103.639,0 -196.46,65.697 -230.973,163.48 -21.774,61.696 -18.22,128.178 10.009,187.2 28.229,59.022 77.752,103.518 139.447,125.293 26.372,9.307 53.799,14.027 81.518,14.027 103.641,0 196.462,-65.699 230.973,-163.482 21.773,-61.696 18.219,-128.176 -10.01,-187.198 z M 245.064,74.38 c 94.115,0 170.684,76.568 170.684,170.684 0,94.116 -76.568,170.682 -170.684,170.682 C 150.949,415.746 74.38,339.18 74.38,245.064 74.38,150.948 150.949,74.38 245.064,74.38 Z m -10,-54.084 V 54.648 C 160,58.546 96.289,106.056 68.837,172.263 L 36.496,160.847 C 69.413,79.322 147.281,24.207 235.064,20.296 Z m 10,449.768 c -25.445,0 -50.633,-4.336 -74.861,-12.889 C 113.545,437.179 68.066,396.316 42.143,342.114 17.662,290.929 13.4,233.638 29.839,179.707 l 32.326,11.41 c -5.057,17.113 -7.784,35.217 -7.784,53.947 0,105.143 85.54,190.682 190.684,190.682 52.098,0 99.375,-21.008 133.826,-54.99 l 26.586,21.922 c -41.448,42.134 -98.848,67.386 -160.413,67.386 z M 457.178,319.925 c -8.882,25.166 -21.971,48.016 -38.305,67.875 l -26.471,-21.826 c 27.071,-32.928 43.346,-75.055 43.346,-120.91 0,-101.789 -80.17,-185.203 -180.684,-190.422 v -34.35 c 22.038,0.986 43.812,5.231 64.861,12.658 116.96,41.28 178.53,170.016 137.253,286.975 z"
   id="path2"
   style="fill:#008800;fill-opacity:1"
   sodipodi:nodetypes="ccscscsccssssscccccsccccssccscccscccc" />
</g>
</svg>
